<svg xmlns="http://www.w3.org/2000/svg" version="1.1" xmlns:xlink="http://www.w3.org/1999/xlink" xmlns:svgjs="http://svgjs.dev/svgjs" viewBox="0 0 1920 1080"><rect width="1920" height="1080" fill="#02014b"></rect><g transform="matrix(0.8131727983645296,0.8131727983645295,-0.8131727983645295,0.8131727983645296,610.3551527465352,-644.4502124681137)"><path d="M0,-1080C-14.472439415404748,-998.1007728903757,-87.71144568443492,-763.180695240408,-86.83463649242849,-588.6046373422541C-85.95782730042205,-414.0285794441003,-6.910449684606045,-231.05046158069482,5.2608551520386015,-32.5436526110771C17.432159988683246,165.9631563585406,-13.007803830509069,402.7059479359766,-13.806807472560607,602.4362164754519C-14.605811114612145,802.1664850149273,-7.943301031187174,980.6297865424963,0.46683329972937315,1165.8379586257747C8.87696763064592,1351.0461307090532,36.731804062893566,1547.991575412752,36.65399851293867,1713.6852489751227C36.576192962983775,1879.3789225374935,6.108999752156445,2085.6142081625203,0,2160L 1920 2160 L 1920 -1080 Z" fill="url(&quot;#SvgjsLinearGradient2041&quot;)"></path><path d="M240,-1080C251.45611802897585,-973.426857248855,296.5441464961098,-644.4639153236337,308.73670817385505,-440.5611434931299C320.9292698516003,-236.65837166262605,323.12357472198596,-80.36371275682859,313.1553700664713,143.4166309830232C303.1871654109566,367.196974722875,270.3796481107345,688.6553209273703,248.92748024076695,902.1209189459807C227.47531237079943,1115.5865169645913,185.9302762201272,1214.5637055856826,184.44236284666604,1424.2102190946857C182.95444947320487,1633.856732603689,230.74039380777768,2037.3683698491143,240,2160L 1920 2160 L 1920 -1080 Z" fill="url(&quot;#SvgjsLinearGradient2042&quot;)"></path><path d="M480,-1080C478.23305976767705,-942.8981556742342,469.4228145291178,-514.5916405269293,469.39835860606223,-257.388934045405C469.3739026830067,-0.18622756388066364,475.2224828568791,191.9155660461966,479.85326446166664,463.21623888914587C484.4840460664542,734.5169117320952,497.1585923117322,1087.617809493815,497.18304823478775,1370.4151030122907C497.2075041578433,1653.2123965307665,482.8638413724646,2028.4025171687151,480,2160L 1920 2160 L 1920 -1080 Z" fill="url(&quot;#SvgjsLinearGradient2043&quot;)"></path><path d="M720,-1080C716.0049486370972,-958.171013092932,680.9313681911314,-551.521894294315,696.029691822583,-349.026078557592C711.1280154540347,-146.53026282086898,807.9276012194952,-74.69616111208774,810.5899417887099,134.9748944203379C813.2522823579246,344.64594995276354,741.5548943051567,663.9559445545292,712.0037352378713,909.0002546369619C682.4525761705859,1154.0445647193947,631.9502765913095,1396.740797354428,633.2829873849976,1605.2407549149343C634.6156981786856,1813.7407124754407,705.5471645641662,2067.540125819156,720,2160L 1920 2160 L 1920 -1080 Z" fill="url(&quot;#SvgjsLinearGradient2044&quot;)"></path><path d="M960,-1080C956.2851342867716,-1004.6517173353998,923.9442556387794,-797.6135174367745,937.7108057206294,-627.9103040123986C951.4773558024795,-458.20709058802265,1053.7317686013546,-206.9662359033994,1042.5993004911,-61.78071945374472C1031.4668323808453,83.40479699590995,887.3290534012856,108.87596215913567,870.9159970591011,243.20279468552957C854.5029407169166,377.52962721192347,937.9844444791488,576.6242874472505,944.1209624379931,744.1802757046187C950.2574803968373,911.7362639619869,914.1834754756169,1094.6084731193023,907.7351048121665,1248.5387242297386C901.286734148716,1402.468975340175,896.7199225926516,1515.85156973886,905.4307384572905,1667.761782367237C914.1415543219294,1819.6719949956139,950.9051230762151,2077.9602970612063,960,2160L 1920 2160 L 1920 -1080 Z" fill="url(&quot;#SvgjsLinearGradient2045&quot;)"></path><path d="M1200,-1080C1186.4825125741213,-937.6917095868955,1105.100740983682,-506.261508494172,1118.8950754447274,-226.15025752137308C1132.6894099057727,53.96099345142585,1269.9003931474865,330.63387995619524,1282.7660067662723,600.6675058367937C1295.631620385058,870.7011317173922,1209.883091618487,1134.1627487350163,1196.0887571574417,1394.0514977622174C1182.2944226963964,1653.9402467894186,1199.3481261929069,2032.341916293703,1200,2160L 1920 2160 L 1920 -1080 Z" fill="url(&quot;#SvgjsLinearGradient2046&quot;)"></path><path d="M1440,-1080C1437.757885170416,-978.6871221059362,1423.264348548716,-678.6562989783749,1426.547311022496,-472.1227326356167C1429.8302734962758,-265.5891662928585,1462.3500741877617,-76.30469114376925,1459.6977748426789,159.20139805654924C1457.045475497596,394.7074872568677,1428.0071269050434,699.8007002318217,1410.6335149519987,940.9138025662943C1393.259902998954,1182.026904900767,1350.561688949744,1402.6989791577673,1355.456103124411,1605.880012063385C1360.3505172990779,1809.0610449690028,1425.9093505207352,2067.646668677231,1440,2160L 1920 2160 L 1920 -1080 Z" fill="url(&quot;#SvgjsLinearGradient2047&quot;)"></path><path d="M1680,-1080C1673.6595244320374,-1002.3316759831889,1633.2445678676227,-798.3566006312749,1641.957146592225,-613.9900558991333C1650.6697253168272,-429.62351116699165,1724.2886521219143,-157.48478447413862,1732.2754723476132,26.199268392849675C1740.2622925733122,209.883321259838,1701.9585946273344,305.6578474801802,1689.878067946419,488.11426130279654C1677.7975412655035,670.5706751254129,1661.3842857720715,925.3183970028931,1659.792312262121,1120.937751328548C1658.2003387521704,1316.557105654203,1676.958278930402,1488.6533458114843,1680.3262268867152,1661.8303872567262C1683.6941748430283,1835.0074287019681,1680.0543711477858,2076.9717312094544,1680,2160L 1920 2160 L 1920 -1080 Z" fill="url(&quot;#SvgjsLinearGradient2048&quot;)"></path></g><defs><linearGradient x1="0.1" y1="0" x2="0" y2="1" id="SvgjsLinearGradient2041"><stop stop-color="#02014b" offset="0"></stop><stop stop-color="#010c4b" offset="0"></stop></linearGradient><linearGradient x1="0.1" y1="0" x2="0" y2="1" id="SvgjsLinearGradient2042"><stop stop-color="#040287" offset="0"></stop><stop stop-color="#021687" offset="0.125"></stop></linearGradient><linearGradient x1="0.1" y1="0" x2="0" y2="1" id="SvgjsLinearGradient2043"><stop stop-color="#0503c4" offset="0"></stop><stop stop-color="#0321c4" offset="0.25"></stop></linearGradient><linearGradient x1="0.1" y1="0" x2="0" y2="1" id="SvgjsLinearGradient2044"><stop stop-color="#0c08fc" offset="0"></stop><stop stop-color="#082dfc" offset="0.375"></stop></linearGradient><linearGradient x1="0.1" y1="0" x2="0" y2="1" id="SvgjsLinearGradient2045"><stop stop-color="#4745fd" offset="0"></stop><stop stop-color="#4562fd" offset="0.5"></stop></linearGradient><linearGradient x1="0.1" y1="0" x2="0" y2="1" id="SvgjsLinearGradient2046"><stop stop-color="#8381fd" offset="0"></stop><stop stop-color="#8194fd" offset="0.625"></stop></linearGradient><linearGradient x1="0.1" y1="0" x2="0" y2="1" id="SvgjsLinearGradient2047"><stop stop-color="#bfbefe" offset="0"></stop><stop stop-color="#bec8fe" offset="0.75"></stop></linearGradient><linearGradient x1="0.1" y1="0" x2="0" y2="1" id="SvgjsLinearGradient2048"><stop stop-color="#fafaff" offset="0"></stop><stop stop-color="#fafbff" offset="0.875"></stop></linearGradient></defs></svg>