<svg xmlns="http://www.w3.org/2000/svg" version="1.1" xmlns:xlink="http://www.w3.org/1999/xlink" xmlns:svgjs="http://svgjs.dev/svgjs" viewBox="0 0 1920 1080"><rect width="1920" height="1080" fill="#0300b3"></rect><g transform="matrix(0.8131727983645296,0.8131727983645295,-0.8131727983645295,0.8131727983645296,614.6726012063025,-663.2420779731901)"><path d="M0,-1080C5.235615176774405,-984.2336792637304,29.066266489337057,-685.6099170403713,31.41369106064643,-505.40207558238257C33.761115631955796,-325.1942341243938,19.24310366909918,-169.55058101802888,14.084547427856222,1.2470487479326593C8.925991186613263,172.0446785138942,9.524538392821844,335.5236083140629,0.4623536131886752,519.3837030133866C-8.599831166444494,703.2437977127103,-44.45409776657878,915.021898697164,-40.28856124994279,1104.4076169438745C-36.12302473330679,1293.793335190585,18.74081250468083,1479.765948650962,25.455572713004628,1655.6980124936495C32.17033292132842,1831.630076336337,4.242595452167438,2075.949668748942,0,2160L 1920 2160 L 1920 -1080 Z" fill="url(&quot;#SvgjsLinearGradient1216&quot;)"></path><path d="M320,-1080C316.1262069674249,-1010.6615994371111,303.2445321898233,-804.2021604193957,296.7572418045493,-663.969596622667C290.26995141927534,-523.7370328259384,283.51578530020305,-373.5297507610525,281.0762576883561,-238.6046172196283C278.6367300765092,-103.67948367820406,278.19715019669405,18.27788249734475,282.1200761334679,145.5812046258783C286.0430020702417,272.88452675441187,303.7152542436046,398.81886218187583,304.61381330899906,525.2153155515731C305.5123723743935,651.6117689212704,289.41372173233196,767.2848752845092,287.5114305258346,903.9599248440619C285.60913931933726,1040.6349744036147,286.595851714783,1204.9187512091048,293.2000660700148,1345.2656129088894C299.80428042524665,1485.612474608674,322.67006100222795,1610.2520305275834,327.13671665722546,1746.0410950427686C331.603372312223,1881.8301595579537,321.18945277620423,2091.0068491737948,320,2160L 1920 2160 L 1920 -1080 Z" fill="url(&quot;#SvgjsLinearGradient1217&quot;)"></path><path d="M640,-1080C639.6991281755413,-998.535500174379,634.116899519344,-750.8256862100293,638.194769053248,-591.2130010462736C642.2726385871521,-431.60031588251786,663.2244834856396,-276.8385932088013,664.4672172034245,-122.32388901746569C665.7099509212095,32.19081517386988,650.5052115254912,183.05323240680036,645.651171359958,335.8752241017398C640.7971311944248,488.6972157966792,643.1522955053154,641.8538274878882,635.3429762102254,794.6080611521708C627.5336569151355,947.3622948164533,600.1003443345257,1104.277163423356,598.7952555894182,1252.4006260874353C597.4901668443106,1400.5240887515147,620.6449863378159,1532.0822748178862,627.5124437395796,1683.348837136647C634.3799011413432,1834.615399455408,637.9187406232633,2080.5581395227746,640,2160L 1920 2160 L 1920 -1080 Z" fill="url(&quot;#SvgjsLinearGradient1218&quot;)"></path><path d="M960,-1080C965.2681247628633,-1014.0270936324548,991.496946911813,-818.1509440905832,991.6087485771798,-684.1625617947287C991.7205502425466,-550.1741794988743,963.5856127561312,-407.73539500161667,960.670809992201,-276.0697062248738C957.7560072282708,-144.40401744813093,970.6973381794818,-23.983045708621006,974.1199319935989,105.83157086572848C977.5425258077161,235.64618744007797,988.7203036283605,356.5704705051993,981.206372876904,502.8179932212231C973.6924421254474,649.0655159372469,937.1413583013701,838.7879168384574,929.0363474848597,983.3167071618714C920.9313366683492,1127.8454974852855,923.5887035337172,1247.566907134185,932.5763079778413,1369.9907351617073C941.5639124219655,1492.4145631892297,978.3913588125782,1586.1914645206236,982.9619741496047,1717.8596753270058C987.5325894866311,1849.527886133388,963.8269956916008,2086.309945887834,960,2160L 1920 2160 L 1920 -1080 Z" fill="url(&quot;#SvgjsLinearGradient1219&quot;)"></path><path d="M1280,-1080C1276.542596516949,-997.3394179950533,1256.0030745485246,-733.3435243301366,1259.2555791016946,-584.03650797032C1262.5080836548645,-434.7294916105035,1297.197484778398,-338.01187812116797,1299.5150273190193,-184.1579018411008C1301.8325698596407,-30.303925561033623,1275.4499838137363,182.35291343809544,1273.1608343454225,339.08734971008295C1270.8716848771087,495.8217859820704,1282.2181273079234,610.7254263873698,1285.7801305091368,756.2487157908241C1289.3421337103503,901.7720051942784,1288.5711512233543,1055.4928084198796,1294.5328535527026,1212.227086130809C1300.494555882051,1368.9613638417386,1323.9724867440104,1538.692229744869,1321.5503444852266,1696.654382056401C1319.1282022264427,1854.6165343679327,1286.9250574142045,2082.7757303427334,1280,2160L 1920 2160 L 1920 -1080 Z" fill="url(&quot;#SvgjsLinearGradient1220&quot;)"></path><path d="M1600,-1080C1598.0864043839404,-986.3686684738198,1595.0726991613142,-695.0781917048628,1588.518426303642,-518.2120108429182C1581.9641534459697,-341.3458299809736,1563.7771714086898,-192.88375925446766,1560.6743628539664,-18.802914828332074C1557.571554299243,155.27792959780353,1567.7646539471045,344.6031584160314,1569.9015749753014,526.2730557138954C1572.0384960034983,707.9429530117593,1565.024689562319,891.0225855031168,1573.495889023148,1071.2164689588515C1581.967088483977,1251.4103524145862,1616.3114199108002,1425.9724346081118,1620.7287717402755,1607.4363564483033C1625.146123569751,1788.9002782884947,1603.454795290046,2067.9060594080506,1600,2160L 1920 2160 L 1920 -1080 Z" fill="url(&quot;#SvgjsLinearGradient1221&quot;)"></path></g><defs><linearGradient x1="0.1" y1="0" x2="0" y2="1" id="SvgjsLinearGradient1216"><stop stop-color="#0300b3" offset="0"></stop><stop stop-color="#001bb3" offset="0"></stop></linearGradient><linearGradient x1="0.1" y1="0" x2="0" y2="1" id="SvgjsLinearGradient1217"><stop stop-color="#0300ac" offset="0"></stop><stop stop-color="#001aac" offset="0.16666666666666666"></stop></linearGradient><linearGradient x1="0.1" y1="0" x2="0" y2="1" id="SvgjsLinearGradient1218"><stop stop-color="#0300a5" offset="0"></stop><stop stop-color="#0018a5" offset="0.3333333333333333"></stop></linearGradient><linearGradient x1="0.1" y1="0" x2="0" y2="1" id="SvgjsLinearGradient1219"><stop stop-color="#03009e" offset="0"></stop><stop stop-color="#00179e" offset="0.5"></stop></linearGradient><linearGradient x1="0.1" y1="0" x2="0" y2="1" id="SvgjsLinearGradient1220"><stop stop-color="#030097" offset="0"></stop><stop stop-color="#001697" offset="0.6666666666666666"></stop></linearGradient><linearGradient x1="0.1" y1="0" x2="0" y2="1" id="SvgjsLinearGradient1221"><stop stop-color="#02008f" offset="0"></stop><stop stop-color="#00168f" offset="0.8333333333333334"></stop></linearGradient></defs></svg>