<svg xmlns="http://www.w3.org/2000/svg" version="1.1" xmlns:xlink="http://www.w3.org/1999/xlink" xmlns:svgjs="http://svgjs.dev/svgjs" viewBox="0 0 1920 1080"><rect width="1920" height="1080" fill="#4a34bc"></rect><g transform="matrix(0.8131727983645296,0.8131727983645295,-0.8131727983645295,0.8131727983645296,615.7708121692638,-668.0220847073724)"><path d="M0,-1080C-1.5323757379586134,-1013.0478480333406,-5.749541860877478,-809.2691920601183,-9.19425442775168,-678.2870882000441C-12.638966994625882,-547.3049843399699,-20.315488105876245,-436.1510371254716,-20.66827540124521,-294.107376839555C-21.021062696614177,-152.0637165536384,-13.184996909064951,41.84687373426527,-11.310978199965483,173.97487351545556C-9.436959490866014,306.10287329664584,-8.873828508048389,364.579120692159,-9.424163146648397,498.6606218475867C-9.974497785248404,632.7421230030144,-22.56493785457853,830.5683343069613,-14.61298603156553,978.4638804480219C-6.661034208552528,1126.3594265890824,40.514204218213266,1255.476252335537,38.28754779142962,1386.0338986939503C36.06089136464597,1516.5915450523635,-21.591666627029163,1632.8154083808267,-27.972924592267432,1761.8097585985017C-34.3541825575057,1890.8041088161767,-4.662154098711238,2093.634959766417,0,2160L 1920 2160 L 1920 -1080 Z" fill="url(&quot;#SvgjsLinearGradient1306&quot;)"></path><path d="M320,-1080C321.48883978149996,-1015.1346427553607,334.71245040436395,-824.1422613659907,328.9330386889999,-690.8078565321639C323.1536269736358,-557.473451698337,284.1727683878306,-412.835255212541,285.3235297078157,-279.99357099703894C286.47429102780075,-147.15188678153683,327.8047851873038,-29.676323216394934,335.8376066089104,106.24224876084884C343.87042803051696,242.1608207380926,334.4050183653442,397.99889710279683,333.5204582374551,535.5178608664236C332.635898109566,673.0368246300503,334.48404728922515,789.1967706637586,330.53024584157606,931.3560313426092C326.576444393927,1073.5152920214598,306.46802760970115,1249.3484990602276,309.7976495515607,1388.4734249395276C313.12727149342027,1527.5983508188276,348.8075857513269,1637.51782410833,350.5079774927334,1766.1055866184088C352.2083692341399,1894.6933491284876,325.08466291545557,2094.350931103068,320,2160L 1920 2160 L 1920 -1080 Z" fill="url(&quot;#SvgjsLinearGradient1307&quot;)"></path><path d="M640,-1080C633.2547214130574,-991.0208728948571,600.2774659378325,-721.6290249795461,599.5283284783443,-546.1252373691427C598.7791910188561,-370.62144975873935,628.716225976664,-213.53281877124346,635.5051752430704,-26.97727433757992C642.2941245094769,159.5782700960836,641.0322004177557,382.9602075538844,640.262024076783,573.2080292328385C639.4918477358102,763.4558509117926,637.8640455171902,939.959838671785,630.884117197234,1114.5096557361444C623.9041888772778,1289.059472800504,596.8631403565844,1446.2585409083526,598.3824541570453,1620.5069316189952C599.9017679575063,1794.7553223296377,633.0637423595076,2070.084488603166,640,2160L 1920 2160 L 1920 -1080 Z" fill="url(&quot;#SvgjsLinearGradient1308&quot;)"></path><path d="M960,-1080C958.0589656596007,-990.046516914902,954.4795096394276,-720.0672692891017,948.3537939576047,-540.279101489412C942.2280782757817,-360.4909336897224,920.9478844333191,-184.1004881689498,923.2457059090622,-1.2709932018624102C925.5435273848052,181.55850176522497,957.7016189417707,375.86571593024564,962.140722812063,556.6978683131124C966.5798266823554,737.5300206959791,957.1901860922796,903.0145001606974,949.8803291308162,1083.7219210953378C942.5704721693528,1264.4293420299784,916.5949692317522,1461.5627141035118,918.2815810432828,1640.9423939209555C919.9681928548134,1820.3220737383992,953.0469301738805,2073.4903989868258,960,2160L 1920 2160 L 1920 -1080 Z" fill="url(&quot;#SvgjsLinearGradient1309&quot;)"></path><path d="M1280,-1080C1274.907095276185,-1010.6854117459128,1250.8416926368052,-794.8566920937989,1249.4425716571095,-664.112470475477C1248.0434506774138,-533.3682488571552,1268.3442603876997,-426.9810920497755,1271.6052741218255,-295.53467029006873C1274.8662878559512,-164.08824853036197,1270.9105340540204,-13.290936740315118,1269.0086540618636,124.56606008276356C1267.1067740697067,262.42305690584226,1262.2261984422291,394.5197882372005,1260.1939941688838,531.6073106484033C1258.1617898955385,668.6948330596061,1250.753962110898,811.7210114045234,1256.8154284217915,947.0911945499804C1262.8768947326848,1082.4613776954375,1296.5501786113075,1213.6373970400293,1296.5627920342433,1343.8284095211452C1296.5754054571792,1474.019422002261,1259.6515742984468,1592.208671023533,1256.8911089594062,1728.2372694366754C1254.1306436203656,1864.2658678498178,1276.148518159901,2088.0395449061125,1280,2160L 1920 2160 L 1920 -1080 Z" fill="url(&quot;#SvgjsLinearGradient1310&quot;)"></path><path d="M1600,-1080C1598.8892110392662,-971.5099239367541,1596.5184454819864,-646.2854217394388,1593.335266235597,-429.05954362052495C1590.1520869892074,-211.83366550161114,1579.5419016743053,0.9428004031882438,1580.9009245216635,223.35526871348281C1582.2599473690216,445.7677370237774,1605.003052086179,688.4490842978254,1601.4894033197456,905.4152662412425C1597.9757545533123,1122.3814481846598,1560.0672658096878,1316.0549047475265,1559.8190319230634,1525.152360373986C1559.570798036439,1734.2498160004457,1593.3031719871772,2054.192060062331,1600,2160L 1920 2160 L 1920 -1080 Z" fill="url(&quot;#SvgjsLinearGradient1311&quot;)"></path></g><defs><linearGradient x1="0.1" y1="0" x2="0" y2="1" id="SvgjsLinearGradient1306"><stop stop-color="#4a34bc" offset="0"></stop><stop stop-color="#3435bc" offset="0"></stop></linearGradient><linearGradient x1="0.1" y1="0" x2="0" y2="1" id="SvgjsLinearGradient1307"><stop stop-color="#422fa9" offset="0"></stop><stop stop-color="#2f30a9" offset="0.16666666666666666"></stop></linearGradient><linearGradient x1="0.1" y1="0" x2="0" y2="1" id="SvgjsLinearGradient1308"><stop stop-color="#3b2995" offset="0"></stop><stop stop-color="#292995" offset="0.3333333333333333"></stop></linearGradient><linearGradient x1="0.1" y1="0" x2="0" y2="1" id="SvgjsLinearGradient1309"><stop stop-color="#332482" offset="0"></stop><stop stop-color="#242582" offset="0.5"></stop></linearGradient><linearGradient x1="0.1" y1="0" x2="0" y2="1" id="SvgjsLinearGradient1310"><stop stop-color="#2c1f6f" offset="0"></stop><stop stop-color="#1f1f6f" offset="0.6666666666666666"></stop></linearGradient><linearGradient x1="0.1" y1="0" x2="0" y2="1" id="SvgjsLinearGradient1311"><stop stop-color="#24195b" offset="0"></stop><stop stop-color="#19195b" offset="0.8333333333333334"></stop></linearGradient></defs></svg>